<?xml version="1.0" encoding="UTF-8"?>
<svg version="1.1" xmlns="http://www.w3.org/2000/svg" width="512" height="512">
<path d="M0 0 C1.0831398 0.54062073 2.1662796 1.08124146 3.28224182 1.63824463 C6.21808099 3.10464299 9.15212517 4.57455496 12.08530927 6.04625487 C15.18736629 7.60173252 18.29157797 9.15289956 21.39549255 10.70466614 C26.61236132 13.31356688 31.82768246 15.92553944 37.04199219 18.53955078 C43.01697399 21.53487084 48.99400884 24.52605908 54.97227246 27.51482314 C61.40181112 30.72925074 67.82981104 33.94674629 74.25738406 37.16510224 C76.0780325 38.07647727 77.89895352 38.98730552 79.71994209 39.89800072 C91.4387607 45.76116966 103.13117338 51.65758807 114.70785332 57.79722691 C123.34388299 62.36890288 132.08479256 66.72677797 140.82983398 71.08520508 C142.39913977 71.86911939 143.9683534 72.65321824 145.53747559 73.4375 C151.24449904 76.28843012 156.95328019 79.13584061 162.66186523 81.98364258 C175.46999023 88.37739258 188.27811523 94.77114258 201.47436523 101.35864258 C201.47436523 154.48864258 201.47436523 207.61864258 201.47436523 262.35864258 C196.88797222 263.88744025 192.77476753 264.9781189 188.06420898 265.86645508 C187.3742836 265.99680145 186.68435822 266.12714783 185.973526 266.26144409 C184.52424546 266.53404845 183.07456518 266.80453544 181.62451172 267.07299805 C179.41367844 267.48330607 177.2047578 267.90295221 174.99584961 268.32348633 C173.58124131 268.5883719 172.16653101 268.85271343 170.75170898 269.11645508 C168.83733032 269.47441162 168.83733032 269.47441162 166.88427734 269.83959961 C163.47436523 270.35864258 163.47436523 270.35864258 158.47436523 270.35864258 C157.97936523 198.58364258 157.97936523 198.58364258 157.47436523 125.35864258 C126.78583552 140.4978307 126.78583552 140.4978307 96.47436523 156.35864258 C96.14436523 197.60864258 95.81436523 238.85864258 95.47436523 281.35864258 C60.47436523 286.35864258 60.47436523 286.35864258 51.47436523 286.35864258 C51.47436523 251.04864258 51.47436523 215.73864258 51.47436523 179.35864258 C18.85883572 195.63347729 18.85883572 195.63347729 -13.52563477 212.35864258 C-27.52220959 217.51527541 -39.83769588 220.75088863 -54.77563477 220.67114258 C-55.87174072 220.66622803 -56.96784668 220.66131348 -58.09716797 220.65625 C-77.89039375 220.37133976 -94.85077956 213.54977319 -112.21313477 204.67114258 C-113.62659122 203.95590694 -115.04033129 203.24123154 -116.4543457 202.52709961 C-125.45964272 197.96868533 -134.4220031 193.32960218 -143.32250977 188.56958008 C-148.68128512 185.75074472 -154.10993123 183.06649435 -159.52563477 180.35864258 C-159.85563477 215.33864258 -160.18563477 250.31864258 -160.52563477 286.35864258 C-175.28669465 286.35864258 -189.91293101 283.44617169 -204.52563477 281.35864258 C-204.52563477 240.10864258 -204.52563477 198.85864258 -204.52563477 156.35864258 C-206.50563477 155.69864258 -208.48563477 155.03864258 -210.52563477 154.35864258 C-211.97188584 153.71480188 -213.40434441 153.03876042 -214.81860352 152.32739258 C-215.60283691 151.93463135 -216.38707031 151.54187012 -217.19506836 151.13720703 C-218.02603027 150.71528076 -218.85699219 150.29335449 -219.71313477 149.85864258 C-221.04078857 149.18998169 -221.04078857 149.18998169 -222.39526367 148.5078125 C-228.86364947 145.23678238 -235.27483459 141.86448262 -241.67480469 138.4621582 C-249.22930375 134.4690768 -256.87572037 130.66424864 -264.52563477 126.85864258 C-279.68278515 119.31571383 -294.70750169 111.55023974 -309.52563477 103.35864258 C-309.52563477 102.69864258 -309.52563477 102.03864258 -309.52563477 101.35864258 C-309.01659103 101.10523102 -308.5075473 100.85181946 -307.983078 100.59072876 C-302.5776009 97.89924449 -297.17365694 95.20469943 -291.77050781 92.50854492 C-289.76665026 91.50909636 -287.76243126 90.51037208 -285.7578125 89.51245117 C-274.85464831 84.08410219 -263.99437586 78.59494455 -253.23320007 72.88980103 C-246.37818348 69.26149327 -239.4556073 65.78079478 -232.50531006 62.33932495 C-222.52680655 57.39622012 -212.58815022 52.39989854 -202.76391602 47.15551758 C-195.41829072 43.2559881 -187.97118438 39.56224371 -180.52563477 35.85864258 C-172.39786145 31.81567106 -164.28332878 27.76138344 -156.27563477 23.48364258 C-145.92279214 17.95506758 -135.39548234 12.77321713 -124.88476562 7.5534668 C-117.46250282 3.86227051 -110.10305736 0.10311985 -102.83813477 -3.89135742 C-69.2549166 -22.1283202 -32.69613308 -16.44058306 0 0 Z M-86.93969727 37.20629883 C-88.07482758 37.77763046 -89.20995789 38.3489621 -90.37948608 38.93760681 C-93.37273403 40.44763879 -96.35922415 41.96962695 -99.34313965 43.4979248 C-102.32157012 45.01922349 -105.30888812 46.5227284 -108.29516602 48.02856445 C-119.2821013 53.58133155 -130.22125173 59.21839872 -141.10025024 64.97962952 C-147.58164288 68.40655483 -154.12347193 71.70101418 -160.69448853 74.9520874 C-171.99177042 80.54509202 -183.21827899 86.25536377 -194.33911133 92.19262695 C-197.51386372 93.88563917 -200.69519924 95.56614517 -203.87597656 97.24780273 C-207.09367636 98.94925436 -210.30967877 100.65389766 -213.52563477 102.35864258 C-210.20524272 105.04140453 -206.61715075 106.98456265 -202.83032227 108.91333008 C-201.84579071 109.42012047 -201.84579071 109.42012047 -200.84136963 109.93714905 C-198.69638982 111.03979123 -196.54860251 112.13683391 -194.40063477 113.23364258 C-192.90688844 113.9998168 -191.413237 114.76617603 -189.91967773 115.53271484 C-179.78757719 120.72538052 -169.6154155 125.83428021 -159.42016602 130.90185547 C-152.62772256 134.28482727 -145.90210176 137.77219615 -139.20581055 141.34082031 C-130.68765743 145.85164723 -122.04675087 150.11704675 -113.4161377 154.40725708 C-105.10435054 158.54002065 -96.83685475 162.73055327 -88.65063477 167.10864258 C-72.81888946 175.50431646 -57.69519378 179.92697383 -39.71313477 175.29614258 C-35.48410366 173.8442051 -31.54205075 171.94108232 -27.56469727 169.91723633 C-26.1324515 169.19473461 -24.70007109 168.47249975 -23.26757812 167.75048828 C-22.50210663 167.36381989 -21.73663513 166.97715149 -20.94796753 166.57876587 C-16.64152033 164.40961859 -12.32279709 162.26511604 -8.00610352 160.11645508 C-5.19169699 158.71304216 -2.37757582 157.30905821 0.43652344 155.9050293 C2.33102 154.96029619 4.22587486 154.01628125 6.12109375 153.07299805 C16.71463096 147.7995834 27.26035608 142.45676993 37.71626282 136.91506958 C44.59046099 133.27795126 51.53155175 129.78713543 58.50073242 126.33630371 C69.63069688 120.82295108 80.7040402 115.22409293 91.66186523 109.37426758 C95.56312492 107.29440346 99.5131039 105.32158904 103.47436523 103.35864258 C101.26530511 100.9292721 99.14989307 99.51518269 96.21264648 98.06542969 C95.35324463 97.6374559 94.49384277 97.20948212 93.60839844 96.76853943 C92.67729248 96.31229691 91.74618652 95.85605438 90.78686523 95.38598633 C89.81515381 94.90343887 88.84344238 94.42089142 87.84228516 93.92372131 C84.72243085 92.37549517 81.59865899 90.83538761 78.47436523 89.29614258 C74.41027337 87.28762764 70.34797338 85.27552695 66.28686523 83.26098633 C65.28373291 82.76376068 64.28060059 82.26653503 63.24707031 81.75424194 C56.15669425 78.22757097 49.13493925 74.58619358 42.14038086 70.87376404 C35.29968134 67.24756498 28.38960763 63.77341111 21.4515686 60.33795166 C12.00574995 55.65943647 2.58444742 50.95197811 -6.71313477 45.98364258 C-34.58321546 31.17775923 -56.78791014 21.65872116 -86.93969727 37.20629883 Z " fill="#000000" transform="translate(310.525634765625,14.641357421875)"/>
<path d="M0 0 C11.24274984 1.12427498 11.24274984 1.12427498 15.95043945 1.98046875 C17.54953659 2.26763008 17.54953659 2.26763008 19.18093872 2.56059265 C20.31361176 2.76747208 21.44628479 2.9743515 22.61328125 3.1875 C25.13491545 3.63960513 27.65664854 4.09115898 30.1784668 4.54223633 C30.83508049 4.66013677 31.49169418 4.7780372 32.16820526 4.89951038 C120.54866174 20.76845813 211.05818753 35.62049733 494.53051758 2.3359375 C495.7617485 2.0972142 495.7617485 2.0972142 497.01785278 1.85366821 C498.51645059 1.56182911 500.01424186 1.26579868 501.51095581 0.96444702 C505.150019 0.25344526 508.24428978 0 512 0 C512 63.36 512 126.72 512 192 C500.75607466 190.87560747 500.75607466 190.87560747 496.56860352 190.11132812 C495.14010071 189.85419037 495.14010071 189.85419037 493.68273926 189.59185791 C492.67497437 189.4068573 491.66720947 189.22185669 490.62890625 189.03125 C488.37059505 188.62493092 486.11220938 188.2190256 483.85375977 187.81347656 C482.66823517 187.59953247 481.48271057 187.38558838 480.26126099 187.16516113 C382.92559383 169.66094746 284.94466773 155.35312537 21.51318359 188.99780273 C20.14912384 189.24383743 20.14912384 189.24383743 18.75750732 189.49484253 C16.84476124 189.84524522 14.93375604 190.20523365 13.02423096 190.57278442 C12.05926697 190.75638519 11.09430298 190.93998596 10.10009766 191.12915039 C9.24002106 191.2961293 8.37994446 191.46310822 7.49380493 191.63514709 C5 192 5 192 0 192 C0 128.64 0 65.28 0 0 Z M43 52 C43 81.04 43 110.08 43 140 C49.70867729 139.32913227 56.25356158 138.54610986 62.8828125 137.43359375 C64.84150374 137.11280969 66.80033257 136.79286496 68.75927734 136.47363281 C69.7921991 136.30496704 70.82512085 136.13630127 71.88934326 135.96252441 C122.56741928 127.73939405 174.01334205 120.62418983 225.33627319 118.36366272 C228.44436844 118.21407226 231.03036395 117.98987868 234 117 C234 103.14 234 89.28 234 75 C229.98882379 73.99720595 226.20294779 73.68376817 222.1015625 73.45703125 C220.4376897 73.35620031 218.7738739 73.2544257 217.11010742 73.15185547 C216.22132904 73.09753357 215.33255066 73.04321167 214.4168396 72.98724365 C160.51485181 69.61347167 106.92785938 61.97949854 53.66630554 53.19955444 C52.6991713 53.04169464 51.73203705 52.88383484 50.7355957 52.72119141 C49.8897139 52.58145905 49.04383209 52.44172668 48.1723175 52.29776001 C45.87007015 51.93209979 45.87007015 51.93209979 43 52 Z M461.06518555 52.73095703 C460.05087463 52.89199921 459.03656372 53.05304138 457.99151611 53.21896362 C456.88443298 53.39678375 455.77734985 53.57460388 454.63671875 53.7578125 C452.24216605 54.13742248 449.84755064 54.51663709 447.45288086 54.89550781 C446.18765594 55.09615845 444.92243103 55.29680908 443.61886597 55.50354004 C390.90427672 63.83652324 337.87248448 71.20126441 284.5222168 73.78222656 C281.72469856 73.95677909 281.72469856 73.95677909 278 75 C278 88.86 278 102.72 278 117 C281.67397171 118.22465724 285.21275823 118.35794312 289.046875 118.578125 C290.75028207 118.68445273 292.45364944 118.79141778 294.15698242 118.89892578 C295.06451263 118.95534241 295.97204285 119.01175903 296.90707397 119.06988525 C332.7990654 121.34383711 368.39785827 125.49143869 404 130.5 C404.66487301 130.59336891 405.32974602 130.68673782 406.01476669 130.7829361 C422.80720402 133.14359647 439.56311458 135.67542133 456.29150391 138.4510498 C457.52046387 138.6534729 458.74942383 138.855896 460.015625 139.06445312 C461.10133789 139.24528442 462.18705078 139.42611572 463.30566406 139.61242676 C466.04122775 140.07119093 466.04122775 140.07119093 469 140 C469 110.96 469 81.92 469 52 C466.22637724 52 463.79747531 52.29319243 461.06518555 52.73095703 Z " fill="#000000" transform="translate(0,320)"/>
</svg>
